HIERARCHY
ROOT Hips
{
  OFFSET 263.056 91.6644 -274.608
  CHANNELS 6 Xposition Yposition Zposition Zrotation Xrotation Yrotation
  JOINT LeftUpLeg
  {
    OFFSET 8.64259 1.95398 -2.38835
    CHANNELS 3 Zrotation Xrotation Yrotation
    JOINT LeftLeg
    {
      OFFSET 43.7702 0 0
      CHANNELS 3 Zrotation Xrotation Yrotation
      JOINT LeftFoot
      {
        OFFSET 40.6238 0 0
        CHANNELS 3 Zrotation Xrotation Yrotation
        JOINT LeftToeBase
        {
          OFFSET 12.7242 0 0
          CHANNELS 3 Zrotation Xrotation Yrotation
          End Site
          {
            OFFSET 0 0 0
          }
        }
      }
    }
  }
  JOINT RightUpLeg
  {
    OFFSET -8.2249 1.95398 -2.59336
    CHANNELS 3 Zrotation Xrotation Yrotation
    JOINT RightLeg
    {
      OFFSET 43.5653 0 0
      CHANNELS 3 Zrotation Xrotation Yrotation
      JOINT RightFoot
      {
        OFFSET 40.6238 0 0
        CHANNELS 3 Zrotation Xrotation Yrotation
        JOINT RightToeBase
        {
          OFFSET 12.7242 0 0
          CHANNELS 3 Zrotation Xrotation Yrotation
          End Site
          {
            OFFSET 0 0 0
          }
        }
      }
    }
  }
  JOINT Spine
  {
    OFFSET 0.165834 0.87714 6.61349
    CHANNELS 3 Zrotation Xrotation Yrotation
    JOINT Spine1
    {
      OFFSET 7.38963 1.71661e-005 0
      CHANNELS 3 Zrotation Xrotation Yrotation
      JOINT Spine2
      {
        OFFSET 11.9445 1.14441e-005 0
        CHANNELS 3 Zrotation Xrotation Yrotation
        JOINT Spine3
        {
          OFFSET 14.7254 4.19617e-005 0
          CHANNELS 3 Zrotation Xrotation Yrotation
          JOINT Spine4
          {
            OFFSET 10.9679 0 0
            CHANNELS 3 Zrotation Xrotation Yrotation
            JOINT RightShoulder
            {
              OFFSET 2.46616 -1.6653 3.69651
              CHANNELS 3 Zrotation Xrotation Yrotation
              JOINT RightArm
              {
                OFFSET 13.0012 0 0
                CHANNELS 3 Zrotation Xrotation Yrotation
                JOINT RightForeArm
                {
                  OFFSET 28.7848 1.52588e-005 0
                  CHANNELS 3 Zrotation Xrotation Yrotation
                  JOINT RightHand
                  {
                    OFFSET 26.5688 1.52588e-005 0
                    CHANNELS 3 Zrotation Xrotation Yrotation
                    End Site
                    {
                      OFFSET 0 0 0
                    }
                  }
                }
              }
            }
            JOINT LeftShoulder
            {
              OFFSET 2.38034 -1.29275 -3.7523
              CHANNELS 3 Zrotation Xrotation Yrotation
              JOINT LeftArm
              {
                OFFSET 16.3182 6.10352e-005 0
                CHANNELS 3 Zrotation Xrotation Yrotation
                JOINT LeftForeArm
                {
                  OFFSET 27.0901 0 0
                  CHANNELS 3 Zrotation Xrotation Yrotation
                  JOINT LeftHand
                  {
                    OFFSET 24.5451 1.52588e-005 0
                    CHANNELS 3 Zrotation Xrotation Yrotation
                    End Site
                    {
                      OFFSET 0 0 0
                    }
                  }
                }
              }
            }
            JOINT Neck
            {
              OFFSET 5.0226 -0.0266342 0
              CHANNELS 3 Zrotation Xrotation Yrotation
              JOINT Head
              {
                OFFSET 6.69364 2.86102e-005 0
                CHANNELS 3 Zrotation Xrotation Yrotation
                End Site
                {
                  OFFSET 0 0 0
                }
              }
            }
          }
        }
      }
    }
  }
}
MOTION
Frames:	14
Frame Time:	0.0416667
-97.1283 93.3514 -62.8581 45.9895 -60.9013 56.8072 -166.336 56.5401 92.3008 -36.9329 13.6475 -7.8646 54.5374 -4.63584 5.04408 52.7319 29.7082 9.49769 178.938 -6.16352 89.6092 -27.1814 0.0523512 -4.57657 39.6844 2.57414 2.88025 29.813 -0.119476 3.13136 1.36854 7.67969 -89.7136 11.5157 2.8567 0.277132 -0.15213 2.86611 0.151023 -22.7097 2.64124 1.12345 -2.69702 2.64124 1.12346 85.3087 -43.428 -110.173 31.7577 -13.6348 16.2147 -22.4352 12.1343 -109.272 -20.7775 -1.5119 3.82087 -100.535 -40.5117 59.3204 -47.2526 -5.28951 46.4916 -2.27195 -5.33727 -79.1019 27.3851 2.44984 5.16404 11.1192 2.32509 2.02244 11.7934 1.5343 -1.81573 
-90.0918 92.634 -54.2275 52.6392 -59.0924 63.1353 -164.544 51.1382 89.4713 -39.7694 13.2643 -8.12375 55.3336 -3.58168 4.39799 51.0224 29.1903 13.6521 -179.626 0.62606 92.0631 -51.0734 3.19032 -5.5728 37.6007 3.61557 4.01465 28.9937 -0.515064 8.63375 0.965884 7.88737 -89.6375 11.0954 2.09088 0.519035 -0.573893 2.1117 0.426458 -23.1192 1.83821 1.12361 -3.10657 1.83821 1.12361 82.7128 -45.3464 -113.6 31.9905 -11.1286 21.1094 -17.0383 6.06593 -99.6258 -20.0273 -1.46943 3.70266 -100.484 -42.2522 60.1742 -43.3096 -5.7089 41.8072 0.87141 -4.3059 -80.7107 28.8368 1.69304 2.00993 7.27027 2.77516 0.680447 14.6327 2.26172 -1.8902 
-83.4628 91.045 -46.1668 63.5697 -56.8474 70.9924 -164.378 42.2775 86.1573 -45.9535 16.1915 -7.96777 60.8238 4.59199 11.3551 48.5277 21.8591 0.394619 177.82 8.57173 92.2446 -76.5609 6.69181 -4.50236 39.6866 2.26478 2.58164 30.4582 -0.221934 6.88512 0.430954 8.50793 -89.3144 9.8505 1.17 1.26645 -1.82046 1.22461 1.21372 -24.3528 0.735341 1.55947 -4.34013 0.735341 1.55947 81.2804 -48.7232 -114.484 31.5128 -11.8178 24.8805 -12.1069 3.04229 -88.0995 -21.4941 -1.13802 1.16808 -101.562 -43.5164 59.0655 -37.4063 -5.83137 36.0847 2.45362 -4.29923 -86.6282 33.9838 2.11263 2.35678 3.62693 3.21315 -1.28945 18.4324 3.0878 -1.43225 
-76.9017 88.9962 -38.2964 66.0155 -55.0948 71.282 -163.697 35.9002 83.2826 -50.7327 14.4906 -7.98869 65.2698 12.1572 16.4042 52.531 23.9622 -6.55413 176.052 23.1576 93.0752 -95.9009 12.7753 -4.42347 40.1853 -0.234791 0.316035 34.145 0.223782 6.05478 0.00159229 8.86613 -88.9122 9.13176 0.489722 2.11988 -2.54076 0.582524 2.09628 -25.0621 -0.16986 2.16904 -5.0495 -0.169876 2.16904 78.8399 -50.9266 -117.219 32.3437 -12.2942 29.1769 -6.5759 -0.838437 -75.516 -21.8772 -1.33201 1.98555 -102.244 -43.7005 58.1042 -30.6606 -6.35656 28.6548 10.5046 -3.49121 -94.6173 33.9305 3.55641 6.72085 2.9587 3.91396 -3.3606 21.5097 4.22987 -0.702843 
-69.7923 87.6572 -30.7963 65.1637 -52.1468 70.7119 -165.416 29.5048 82.4611 -50.3883 14.4093 -7.00021 66.8643 16.7928 20.0704 56.7257 28.3256 -5.5849 173.534 40.5298 96.1666 -105.335 13.4972 -4.72436 41.4153 -1.09372 -0.46501 37.2297 0.586367 4.90811 -0.476913 8.80205 -88.9343 9.26811 -0.473157 2.14667 -2.40456 -0.378235 2.1654 -24.9285 -1.09634 1.90539 -4.91581 -1.09632 1.90539 77.9264 -50.3012 -118.814 36.3424 -14.1688 36.2468 -4.11703 -3.03254 -65.5153 -21.5912 -1.17011 1.20897 -100.24 -42.0415 60.4641 -27.7936 -3.47609 19.2436 15.9743 -4.95206 -104.01 35.5365 4.7879 9.75955 5.17109 4.62278 -3.64529 19.3946 4.90798 -1.3504 
-61.5508 87.927 -22.8985 66.9472 -48.5016 75.0504 -169.085 20.1185 85.5255 -45.4953 17.3193 -4.5483 65.3662 16.4579 19.9816 60.6438 32.4301 -4.79822 168.317 51.3631 101.132 -102.125 12.7978 -4.11623 47.3969 -1.05624 -0.466204 41.5655 0.856394 1.44308 -0.91622 8.67121 -89.4366 9.53918 -1.57276 1.23696 -2.13146 -1.51679 1.30499 -24.6724 -1.87179 0.707019 -4.65971 -1.87178 0.707015 77.272 -51.2969 -119.336 39.7274 -15.2383 46.4034 -1.80054 -3.7028 -62.033 -19.782 -0.999127 0.751633 -97.4549 -39.2142 63.7121 -28.7036 -0.798 14.2722 20.4361 -10.301 -114.165 31.8884 4.60617 10.7868 6.53234 5.33887 -4.46099 18.2432 6.02779 -0.213676 
-52.5052 89.4944 -14.4639 70.0778 -49.1015 79.6029 -170.245 6.97951 88.2804 -36.1254 18.994 -2.87807 60.3232 7.31206 10.776 62.2624 36.1648 -0.141409 169.288 55.2761 101.783 -89.2579 9.31864 -2.25679 51.8368 -0.0254531 0.266301 40.9288 0.933032 4.18696 -1.13808 8.67876 -89.8538 9.52177 -2.20335 0.456982 -2.14743 -2.18111 0.553544 -24.6975 -2.23878 -0.226677 -4.68483 -2.23879 -0.226686 76.3125 -51.0328 -120.831 42.8318 -14.743 55.8753 0.147731 -2.75762 -62.4474 -18.9114 -0.863215 0.112405 -96.2217 -38.4408 65.4283 -29.4971 0.52544 13.1451 23.0324 -15.2017 -121.851 34.1786 4.9101 10.6911 6.87368 6.58692 -4.0317 16.0781 7.47495 1.58062 
-43.2301 91.362 -5.28409 72.0798 -48.9116 82.232 -171.852 -7.80446 93.3395 -16.4983 24.1528 -0.52566 39.366 -11.5125 -4.8165 56.5545 32.9484 6.32476 170.705 54.1624 99.744 -68.9638 4.73763 1.39388 54.5874 0.812975 0.821287 43.2527 1.06764 3.0976 -1.40785 8.5506 -90.1919 9.77307 -2.8932 -0.149455 -1.89463 -2.89699 -0.0218741 -24.4533 -2.71443 -1.01271 -4.44066 -2.71443 -1.01272 78.6729 -48.7163 -118.395 47.4997 -15.5 61.3179 3.76578 -0.56145 -63.8185 -19.1335 -0.791144 -0.526748 -96.6187 -38.7546 64.898 -29.6762 1.25812 14.8708 23.735 -17.8168 -125.273 33.8349 4.83616 10.5954 5.72022 7.34057 -3.88207 11.9653 8.35297 3.44865 
-33.9622 92.8178 4.76373 69.7836 -48.7333 79.9546 -174.495 -16.1598 91.5941 -5.857 27.981 0.391631 26.1496 -18.4088 -9.4372 28.7512 -0.946032 6.55903 174.984 51.7347 95.9687 -45.0113 2.80608 4.38566 55.6476 1.12931 1.04919 49.3466 1.52644 2.16407 -1.64157 8.14009 -90.3431 10.5905 -3.42708 -0.371646 -1.076 -3.4401 -0.220282 -23.6426 -3.1568 -1.38544 -3.62994 -3.15679 -1.38543 79.4107 -47.1766 -117.945 49.9972 -16.0757 64.3651 7.24609 1.50733 -66.0767 -18.8855 -0.604978 -1.75854 -96.9907 -39.0255 64.3953 -30.778 1.27597 18.161 21.7582 -15.6798 -123.352 34.4793 4.17816 8.41233 3.44992 7.62539 -2.9548 11.1365 8.51201 4.3217 
-25.4455 92.768 14.7123 67.1548 -49.707 74.5503 -176.679 -8.20326 87.5916 -28.2719 17.0054 1.12769 36.1449 -13.1538 -3.91636 24.6091 -5.62613 4.45009 178.526 50.5849 93.0204 -32.618 3.59399 3.99621 54.0725 2.11647 1.82823 54.4249 2.00414 2.5716 -1.58728 7.9537 -90.0513 10.9729 -3.18375 0.200914 -0.694199 -3.17182 0.340987 -23.2595 -3.09679 -0.76616 -3.24687 -3.09678 -0.766162 78.9752 -49.0503 -117.801 47.3495 -15.887 62.0234 9.30355 2.66733 -67.5465 -20.0948 -0.584964 -2.24179 -97.4143 -38.6037 63.5241 -31.5328 1.80547 20.0188 18.3624 -11.3834 -116.499 32.6559 4.13419 8.96246 5.22237 7.10463 -2.88603 10.6949 7.9926 4.25061 
-17.3357 91.9483 23.5004 71.2264 -52.0578 76.0047 -174.436 -1.74041 88.581 -51.5958 12.6711 -0.174012 37.5039 -13.4134 -1.09519 26.0189 -3.90139 4.44489 178.313 46.8042 93.5745 -37.3602 0.401109 2.93076 54.5733 1.70464 1.47986 49.356 1.47161 2.24947 -1.29717 8.40166 -89.9329 10.0758 -2.55431 0.344824 -1.59269 -2.53664 0.456972 -24.1477 -2.53978 -0.439308 -4.13503 -2.53979 -0.439316 78.9285 -51.0856 -117.027 41.9042 -15.9153 55.109 13.3333 4.46892 -67.8698 -23.0403 -0.799313 -1.9576 -100.173 -39.8321 59.5868 -30.8529 0.396629 21.8421 14.641 -7.50694 -105.052 30.5683 3.22723 6.82663 5.2973 6.25742 0.404085 11.7873 6.31622 2.09752 
-8.96161 90.9281 31.9505 77.7421 -51.9701 82.7306 -172.08 8.95835 89.3055 -73.6293 12.5607 -0.331206 40.1114 -11.5971 0.307569 30.5765 1.47913 6.61269 176.77 38.8684 95.4605 -44.7411 1.52924 2.68837 62.1383 -0.820946 -0.314857 38.572 0.853363 11.2356 -1.14118 8.96709 -90.1047 8.9407 -2.32316 -0.0502471 -2.72816 -2.32311 0.0520986 -25.2788 -2.2006 -0.746476 -5.2662 -2.2006 -0.746474 77.7442 -52.6582 -118.087 36.7707 -15.0839 46.856 16.6439 6.28774 -69.4274 -26.7448 -1.12976 -1.47081 -102.066 -41.0066 57.1387 -30.9633 1.10044 23.6327 7.26034 0.124781 -91.5177 33.4414 2.88133 4.84982 2.71434 5.50605 1.28147 14.7153 5.44894 1.72277 
-0.544382 89.4917 40.8161 79.3696 -50.7182 86.9689 -172.229 23.3574 94.6133 -89.418 13.4692 0.300644 43.0233 -9.30543 2.28362 35.2559 7.35076 7.55323 176.205 31.462 98.8752 -50.5881 7.7564 2.916 75.6534 -5.60025 -2.60763 38.6353 0.90298 12.5782 -0.87732 9.24419 -90.4526 8.37848 -1.95027 -0.773718 -3.29111 -1.98245 -0.687108 -25.8335 -1.62757 -1.32418 -5.82088 -1.62756 -1.32417 78.3858 -51.2356 -117.752 34.3991 -13.9192 37.1276 13.7977 4.86205 -72.9803 -31.0169 -1.54366 -0.682242 -101.73 -41.8334 58.0495 -33.57 3.18301 24.2774 6.97835 -2.64115 -77.7556 40.2577 3.23975 4.13807 3.74471 4.79405 1.87733 14.429 4.55612 1.25118 
7.54444 89.5865 50.1599 71.6618 -53.5575 80.1178 -168.343 40.0671 93.7901 -92.3287 12.5348 -0.0668505 46.2526 -7.39294 3.50179 39.3338 12.6118 8.58114 178.392 25.761 98.9237 -47.511 8.21699 0.521763 79.6672 -7.85212 -3.40217 45.5483 2.04281 11.8654 -0.109871 8.78766 -90.3028 9.29731 -0.354848 -0.574071 -2.37371 -0.379751 -0.557907 -24.908 -0.165906 -0.654174 -4.89531 -0.1659 -0.654175 79.9943 -48.6753 -116.436 33.57 -11.2988 29.3523 7.0718 3.63567 -82.0107 -32.5961 -1.58536 -0.485806 -102.353 -42.8384 57.5499 -36.292 4.08836 28.7626 4.41466 -1.0126 -71.4865 42.8983 3.77219 4.87652 5.94795 3.80107 1.64176 12.0819 3.55439 1.17942 
